<?xml version="1.0" encoding="UTF-8" standalone="no"?>
<svg xmlns:rdf="http://www.w3.org/1999/02/22-rdf-syntax-ns#" xmlns="http://www.w3.org/2000/svg" xml:space="preserve" height="172.51" viewBox="0 0 252 172.50684" width="252" version="1.1" xmlns:cc="http://creativecommons.org/ns#" xmlns:dc="http://purl.org/dc/elements/1.1/"><g transform="matrix(1.25 0 0 -1.25 -20.301 667.74)"><g style="" transform="matrix(1.7094 0 0 1.7094 -81.702 -328.93)"><path d="m128.48 502.12s3.744-2.881 1.872-6.624c-1.872-3.744-14.116-25.917-14.116-25.917s-12.243 22.173-14.115 25.917c-1.872 3.743 1.872 6.624 1.872 6.624h-15.408s3.168-2.448 5.184-5.76c2.016-3.311 22.467-43.629 22.467-43.629s20.452 40.318 22.468 43.629c2.016 3.312 5.184 5.76 5.184 5.76h-15.408z" fill-rule="evenodd" fill="#fff"/><path d="m33.234 0.89062c-1.485 0-1.7389 0.20984-0.56641 1.1211l1.9531 1.5176c1.1712 0.91125 3.0871 2.9451 4.2559 3.8613 0 0 1.4862 1.1647 3.7012 4.8047 1.9525 3.2038 31.028 58.768 31.471 58.768 0.44375 0 29.518-55.564 31.471-58.768 2.215-3.64 3.7012-4.8047 3.7012-4.8047 1.1688-0.91625 3.0866-2.9501 4.2578-3.8613l1.9531-1.5176c1.1725-0.91125 0.91664-1.1211-0.56836-1.1211h-31.557c-1.4862 0-1.4685 0.47516-0.29102 1.3789 0 0 1.4715 1.0073 2.5527 1.7285 1.0788 0.72 3.4945 2.6524 3.6758 3.7324 0.17875 1.08-0.21508 2.4426-0.95508 3.9238-1.7337 3.4662-13.83 25.543-14.24 25.615-0.40875-0.0725-12.505-22.149-14.238-25.615-0.74-1.4812-1.1351-2.8438-0.95508-3.9238 0.18-1.08 2.5951-3.0124 3.6738-3.7324 1.0812-0.72125 2.5527-1.7285 2.5527-1.7285 1.1788-0.90375 1.1972-1.3789-0.28906-1.3789h-31.559zm6.252 2.7012h19.258s-4.6798 3.6025-2.3398 8.2813c2.34 4.68 17.645 32.396 17.645 32.396s15.305-27.716 17.645-32.396c2.34-4.6788-2.3398-8.2813-2.3398-8.2813h19.26s-3.9585 3.0612-6.4785 7.2012c-2.52 4.1388-28.086 54.535-28.086 54.535s-25.564-50.396-28.084-54.535c-2.52-4.14-6.4785-7.2012-6.4785-7.2012zm-38.56 38.99c0.40375 1.4588 1.4841 2.6201 2.3203 3.8613 2.8888 3.7538 7.8032 7.9095 11.502 10.908 3.8612 3.185 19.032 11.906 26.322 15.254 7.3425 3.51 23.273 8.3145 23.408 8.3945-0.18875 0.24375-10.044 2.1883-14.633 2.8633-1.4325 0.2425-2.9441 0.32305-4.3203 0.4043-0.35125-0.89125-0.91805-2.1309-1.998-2.1309-1.0788 0-1.4034 2.1034-1.3496 2.7246l-0.21484 0.16406c-6.1838 0.8375-12.581 1.4027-18.898 1.7539-1.2162-0.97125-1.8223-1.3142-3.5098-1.1055-1.7175 0.21125-2.3136 1.4602-2.2148 2.5352 0.13375 1.485 1.3768 3.4844 2.5918 3.4844 1.62 0 2.5103-1.026 2.9141-0.13476 0.89125 2.5912 2.7701 5.163 5.2676 6.8555 4.0338 2.7375 8.0698 2.7836 12.121 1.0273 4.0488-1.755 5.2652-5.8056 5.5352-7.8281 0.1075-0.80375 0.16211-2.8633 0.16211-2.8633 5.75-0.72875 28.119-5.4531 28.119-5.4531s22.367 4.7244 28.117 5.4531c0 0 0.0566 2.0595 0.16406 2.8633 0.27 2.0225 1.4832 6.0731 5.5332 7.8281 4.05 1.7563 8.088 1.7102 12.123-1.0273 2.4962-1.6925 4.3724-4.2642 5.2637-6.8555 0.40375-0.89125 1.296 0.13476 2.916 0.13476 1.215 0 2.4568-1.9994 2.5918-3.4844 0.0975-1.075-0.4954-2.3239-2.2129-2.5352-1.6875-0.20875-2.2948 0.13422-3.5098 1.1055-6.3175-0.35125-12.718-0.91641-18.9-1.7539l-0.21484-0.16406c0.055-0.62125-0.27157-2.7246-1.3516-2.7246s-1.6448 1.2396-1.9961 2.1309c-1.3775-0.08125-2.8891-0.1618-4.3203-0.4043-4.59-0.675-14.444-2.6195-14.633-2.8633 0.135-0.08 16.064-4.8845 23.406-8.3945 7.29-3.3475 22.464-12.069 26.324-15.254 3.7-2.9988 8.6112-7.1545 11.5-10.908 0.8375-1.2412 1.9192-2.4026 2.3242-3.8613 0 0-12.798 10.233-19.412 14.605-7.6688 4.8062-15.363 9.1555-23.598 12.637-0.6475 0.29875-8.3422 3.1322-11.555 4.2109-7.7488 2.6725-12.324 3.3494-18.561 4.8594-6.2375-1.51-10.815-2.1869-18.562-4.8594-3.2138-1.0788-10.908-3.9122-11.557-4.2109-8.24-3.481-15.935-7.83-23.602-12.636-6.615-4.373-19.41-14.606-19.41-14.606zm39.713 46.682c-0.27 2.1062-2.1877 3.8873-3.9414 4.6973-1.755 0.81-5.8586 1.7548-8.5586 0.13476-1.7662-1.0612-1.9434-2.2412-2.3496-3.375l14.85-1.457zm66.822 0 14.85 1.457c-0.405 1.1338-0.58211 2.3138-2.3496 3.375-2.7 1.62-6.8048 0.67524-8.5586-0.13476-1.755-0.81-3.6714-2.591-3.9414-4.6973z" transform="matrix(.8 0 0 -.8 57 505)" fill="#f04b24"/></g></g></svg>
